<?xml version="1.0" encoding="UTF-8"?>
<svg id="Réteg_1" data-name="Réteg 1" xmlns="http://www.w3.org/2000/svg" xmlns:xlink="http://www.w3.org/1999/xlink" viewBox="0 0 1500 1000">
  <defs>
    <style>
      .cls-1 {
        fill: url(#linear-gradient-2);
      }

      .cls-2 {
        stroke-linejoin: bevel;
      }

      .cls-2, .cls-3, .cls-4, .cls-5, .cls-6, .cls-7 {
        fill: none;
      }

      .cls-2, .cls-3, .cls-5 {
        stroke: #f08179;
      }

      .cls-2, .cls-4, .cls-5 {
        stroke-linecap: round;
      }

      .cls-2, .cls-5 {
        stroke-width: 1.12px;
      }

      .cls-8 {
        fill: #fff;
      }

      .cls-9 {
        fill: url(#linear-gradient-6);
      }

      .cls-3 {
        stroke-width: 1px;
      }

      .cls-3, .cls-4, .cls-5, .cls-6, .cls-7 {
        stroke-miterlimit: 10;
      }

      .cls-10 {
        fill: #d0cde6;
      }

      .cls-11 {
        fill: #f08179;
      }

      .cls-12 {
        fill: #0c123e;
      }

      .cls-13 {
        fill: #637cbc;
      }

      .cls-14 {
        fill: #f2c2cf;
      }

      .cls-15 {
        fill: #161040;
      }

      .cls-4, .cls-6 {
        stroke-width: 7.47px;
      }

      .cls-4, .cls-6, .cls-7 {
        stroke: #0c123e;
      }

      .cls-16 {
        fill: #ddb2bf;
      }

      .cls-17 {
        fill: #008c8c;
      }

      .cls-18 {
        fill: url(#linear-gradient-5);
      }

      .cls-19 {
        fill: #46bfb8;
      }

      .cls-20 {
        fill: url(#linear-gradient-7);
      }

      .cls-21 {
        fill: #3f3e98;
      }

      .cls-22 {
        fill: url(#linear-gradient-9);
      }

      .cls-23 {
        fill: url(#linear-gradient-3);
      }

      .cls-24 {
        fill: url(#linear-gradient);
      }

      .cls-25 {
        fill: url(#linear-gradient-4);
      }

      .cls-26 {
        fill: url(#linear-gradient-8);
      }

      .cls-7 {
        stroke-width: .37px;
      }
    </style>
    <linearGradient id="linear-gradient" x1="367.23" y1="779.52" x2="367.23" y2="623.97" gradientTransform="translate(997.33) rotate(-180) scale(1 -1)" gradientUnits="userSpaceOnUse">
      <stop offset="0" stop-color="#161040"/>
      <stop offset=".54" stop-color="#2b276d"/>
      <stop offset="1" stop-color="#3f3e98"/>
    </linearGradient>
    <linearGradient id="linear-gradient-2" x1="297.13" y1="418.57" x2="396.83" y2="418.57" gradientTransform="translate(303.36 837.14) scale(1 -1)" gradientUnits="userSpaceOnUse">
      <stop offset="0" stop-color="#ddb2bf"/>
      <stop offset=".11" stop-color="#d7adbb"/>
      <stop offset=".25" stop-color="#c7a1b1"/>
      <stop offset=".41" stop-color="#ad8da1"/>
      <stop offset=".57" stop-color="#89718b"/>
      <stop offset=".75" stop-color="#5a4e6e"/>
      <stop offset=".93" stop-color="#22234b"/>
      <stop offset="1" stop-color="#0c123e"/>
    </linearGradient>
    <linearGradient id="linear-gradient-3" x1="286.35" y1="406.92" x2="286.35" y2="322.04" gradientTransform="translate(997.33) rotate(-180) scale(1 -1)" gradientUnits="userSpaceOnUse">
      <stop offset=".14" stop-color="#ddb2bf"/>
      <stop offset=".6" stop-color="#5c4f6f"/>
      <stop offset=".88" stop-color="#0c123e"/>
    </linearGradient>
    <linearGradient id="linear-gradient-4" x1="326.39" y1="388.03" x2="326.39" y2="318.44" gradientTransform="translate(344.55 706.46) scale(1 -1)" gradientUnits="userSpaceOnUse">
      <stop offset=".14" stop-color="#f2c2cf"/>
      <stop offset=".21" stop-color="#ecbecb"/>
      <stop offset=".3" stop-color="#ddb2c2"/>
      <stop offset=".39" stop-color="#c59fb2"/>
      <stop offset=".49" stop-color="#a2859c"/>
      <stop offset=".6" stop-color="#756380"/>
      <stop offset=".7" stop-color="#403a5f"/>
      <stop offset=".8" stop-color="#0c123e"/>
    </linearGradient>
    <linearGradient id="linear-gradient-5" x1="380.13" y1="448.63" x2="380.13" y2="399.12" gradientTransform="translate(997.33) rotate(-180) scale(1 -1)" gradientUnits="userSpaceOnUse">
      <stop offset="0" stop-color="#0c123e"/>
      <stop offset=".09" stop-color="#353258"/>
      <stop offset=".21" stop-color="#675777"/>
      <stop offset=".34" stop-color="#917892"/>
      <stop offset=".47" stop-color="#b493a8"/>
      <stop offset=".6" stop-color="#cfa7b9"/>
      <stop offset=".73" stop-color="#e2b6c5"/>
      <stop offset=".86" stop-color="#eebfcc"/>
      <stop offset="1" stop-color="#f2c2cf"/>
    </linearGradient>
    <linearGradient id="linear-gradient-6" x1="394.75" y1="395.43" x2="394.75" y2="383.97" gradientTransform="translate(207.83 779.4) scale(1 -1)" gradientUnits="userSpaceOnUse">
      <stop offset="0" stop-color="#f2c2cf"/>
      <stop offset=".14" stop-color="#bb98ac"/>
      <stop offset=".31" stop-color="#86708b"/>
      <stop offset=".47" stop-color="#5a4e6f"/>
      <stop offset=".62" stop-color="#38345a"/>
      <stop offset=".76" stop-color="#1f214a"/>
      <stop offset=".89" stop-color="#111541"/>
      <stop offset="1" stop-color="#0c123e"/>
    </linearGradient>
    <linearGradient id="linear-gradient-7" x1="304.09" y1="-7174.25" x2="304.09" y2="-7300.55" gradientTransform="translate(407.75 -6677.4) scale(1 -1)" gradientUnits="userSpaceOnUse">
      <stop offset="0" stop-color="#025a58"/>
      <stop offset=".25" stop-color="#016e6c"/>
      <stop offset=".59" stop-color="#008383"/>
      <stop offset=".81" stop-color="#008c8c"/>
    </linearGradient>
    <linearGradient id="linear-gradient-8" x1="304.22" y1="1493.83" x2="304.22" y2="1365.63" gradientTransform="translate(501.41 -877.49)" gradientUnits="userSpaceOnUse">
      <stop offset="0" stop-color="#025a58"/>
      <stop offset=".21" stop-color="#016e6c"/>
      <stop offset=".5" stop-color="#008383"/>
      <stop offset=".68" stop-color="#008c8c"/>
    </linearGradient>
    <linearGradient id="linear-gradient-9" x1="322.13" y1="454.01" x2="334.05" y2="435.59" gradientTransform="translate(151.5 638.06) rotate(32.99) scale(1 -1)" gradientUnits="userSpaceOnUse">
      <stop offset=".25" stop-color="#f08179"/>
      <stop offset="1" stop-color="#f2c2cf"/>
    </linearGradient>
  </defs>
  <path class="cls-21" d="M187.5,625H1500v375H0v-187.5c0-103.48,84.02-187.5,187.5-187.5Z"/>
  <path class="cls-15" d="M537.57,437.15h371.64v10.05c0,102.56-83.26,185.82-185.82,185.82h0c-102.56,0-185.82-83.26-185.82-185.82v-10.05h0Z" transform="translate(1446.77 1070.17) rotate(-180)"/>
  <path class="cls-21" d="M515.52,436.65h371.64v10.05c0,102.56-83.26,185.82-185.82,185.82h0c-102.56,0-185.82-83.26-185.82-185.82v-10.05h0Z" transform="translate(1402.68 1069.17) rotate(-180)"/>
  <polygon class="cls-24" points="830.2 725.59 837.01 779.52 423.19 777.38 425.19 625.99 789.19 623.97 819.08 625.99 830.2 725.59"/>
  <rect class="cls-12" x="635.67" y="255.22" width="105.89" height="105.89" rx="52.94" ry="52.94"/>
  <path class="cls-17" d="M531.65,486.6h236.18c33.46,0,60.59,21.39,60.59,47.78v91.33H471.06v-91.33c0-26.39,27.13-47.78,60.59-47.78Z"/>
  <path class="cls-15" d="M605.61,472.33h96.55c7.88,0,14.27,6.39,14.27,14.27h0c0,7.88-6.39,14.27-14.27,14.27h-96.55c-7.88,0-14.27-6.39-14.27-14.27h0c0-7.88,6.39-14.27,14.27-14.27Z"/>
  <polygon class="cls-16" points="600.46 364.99 600.46 486.76 702.81 486.76 702.34 448.63 714.81 406.16 722.23 379.66 726.53 364.99 600.46 364.99"/>
  <rect class="cls-1" x="600.5" y="388.88" width="99.7" height="59.38" transform="translate(1300.69 837.14) rotate(-180)"/>
  <path class="cls-12" d="M566.99,251.35h159.17v68.13c0,25.12-20.4,45.52-45.52,45.52h0c-62.72,0-113.65-50.92-113.65-113.65h0Z" transform="translate(1293.15 616.34) rotate(180)"/>
  <path class="cls-14" d="M557.28,317.35c0,9.35,2.98,18.39,8.42,25.52l-5.29,6.13c-2,2.32-3.12,5.41-3.12,8.62v43.22c0,.99,.03,1.96,.08,2.93,.2,3.73,.79,7.34,1.72,10.78,1.09,4.06,2.65,7.89,4.62,11.41,1.75,3.14,3.82,6.04,6.15,8.64,4.25,4.74,9.4,8.49,15.13,10.91,1.15,.49,2.34,.93,3.54,1.31,3.73,1.18,7.67,1.8,11.74,1.8h23.73c26.56,0,48.63-21.38,53.06-49.51,.53-3.38,.81-6.85,.81-10.39v-72.16c0-18.32-13.36-33.17-29.83-33.17h-90.74s0,33.94,0,33.94Z"/>
  <g>
    <rect class="cls-8" x="568.3" y="337.38" width="11.44" height="11.44" rx="5.72" ry="5.72"/>
    <circle cx="573.65" cy="343.1" r="2.97"/>
  </g>
  <g>
    <rect class="cls-8" x="618.47" y="337.38" width="11.44" height="11.44" rx="5.72" ry="5.72"/>
    <circle cx="623.82" cy="343.1" r="2.97"/>
  </g>
  <path class="cls-23" d="M699.84,364.99l-14.2-40.59,53.48-2.36-16.69,57.56v.05l-1.21,4.13-6.7,23.13-.3-.86c-17.91-3.78-31.35-19.68-31.35-38.71v-2.35h16.98Z"/>
  <path class="cls-11" d="M587.63,372.37h22.29c.31,0,.55-.25,.55-.55,0-.31-.25-.55-.55-.55h-21.49s11.96-32.22,11.96-32.22c.11-.29-.04-.61-.33-.71-.29-.11-.61,.04-.71,.33l-12.24,32.96c-.06,.17-.04,.36,.06,.51,.1,.15,.27,.24,.45,.24Z"/>
  <path class="cls-12" d="M649.23,322.25c4.48,0,8.12,3.64,8.12,8.12v4.38h-38.72c-4.48,0-8.12-3.64-8.12-8.12v-4.38h38.72Z"/>
  <path class="cls-12" d="M557.17,308.55h30.62v4.38c0,4.48-3.64,8.12-8.12,8.12h-30.62v-4.38c0-4.48,3.64-8.12,8.12-8.12Z"/>
  <path class="cls-12" d="M659.59,226.44c19.07,0,34.53,15.46,34.53,34.53v25.25h-2.41s0,52.44,0,52.44h-9.09c-10.3,0-18.65-8.35-18.65-18.65v-17.35c0-9.08-7.36-16.44-16.44-16.44h-90.11c-13.18,0-23.87-10.69-23.87-23.87v-35.9h126.04Z"/>
  <path class="cls-12" d="M611.99,340.33h36.88c3.47,0,6.28,2.81,6.28,6.28v11.79c0,4.8-3.89,8.69-8.69,8.69h-25.78c-4.8,0-8.69-3.89-8.69-8.69v-18.07Zm-59.42,6.28c0-3.47,2.81-6.28,6.28-6.28h25.72v18.44c0,4.59-3.72,8.32-8.32,8.32h-15.35c-4.59,0-8.32-3.72-8.32-8.32v-12.16Zm-2.95-7.75v19.91c0,6.22,5.05,11.27,11.27,11.27h15.35c6.22,0,11.27-5.05,11.27-11.27v-5.69c0-2.47,2-4.47,4.47-4.47h12.58c2.47,0,4.47,2,4.47,4.47v5.33c0,6.43,5.21,11.64,11.64,11.64h25.78c6.43,0,11.64-5.21,11.64-11.64v-12c0-3.35,2.72-6.07,6.07-6.07h26.77s0-2.95,0-2.95h-33.59s0,.2,0,.2c-.22-.12-.46-.2-.73-.2h-46.11c-.82,0-1.48,.66-1.48,1.48v2.33c0,2.47-2,4.47-4.47,4.47h-12.58c-2.47,0-4.47-2-4.47-4.47v-2.33c0-.82-.66-1.48-1.48-1.48h-34.94c-.82,0-1.48,.66-1.48,1.48Z"/>
  <path class="cls-14" d="M690.97,336.03h0c10.14,0,18.35,8.22,18.35,18.35v23.66c0,9.93-8.05,17.98-17.98,17.98h0c-9.93,0-17.98-8.05-17.98-17.98v-24.41c0-9.72,7.88-17.6,17.6-17.6Z"/>
  <g>
    <path class="cls-11" d="M682.85,375.52c.15,0,.3-.06,.41-.18l17.34-18.68c.21-.22,.2-.57-.03-.78-.22-.21-.57-.2-.78,.03l-17.34,18.68c-.21,.22-.2,.57,.03,.78,.11,.1,.24,.15,.38,.15Z"/>
    <path class="cls-11" d="M700.2,375.52c.13,0,.27-.05,.38-.15,.22-.21,.24-.56,.03-.78l-17.34-18.68c-.21-.22-.56-.24-.78-.03-.22,.21-.24,.56-.03,.78l17.34,18.68c.11,.12,.26,.18,.41,.18Z"/>
  </g>
  <rect class="cls-25" x="663.8" y="318.44" width="14.27" height="69.59" transform="translate(1341.88 706.46) rotate(-180)"/>
  <path class="cls-11" d="M596.9,408.56c6.81,0,16.21-1.66,24.31-9.03,.23-.21,.24-.56,.04-.78-.21-.23-.56-.24-.78-.04-14.2,12.91-32.5,7.73-32.68,7.68-.29-.09-.6,.08-.69,.37-.09,.29,.08,.6,.37,.69,.08,.02,3.91,1.11,9.43,1.11Z"/>
  <path class="cls-18" d="M579.65,423.85c2.21,3.37,7.04,3.75,9.74,.76,3.13-3.46,7.66-5.63,12.69-5.63s9.54,2.16,12.67,5.6c2.69,2.96,7.4,2.78,9.7-.49,10.61-15.1,28.16-24.97,48.02-24.97h4.55c-4.43,28.13-26.5,49.51-53.06,49.51h-4.76s-4.67,0-4.67,0h-14.3c-4.07,0-8-.63-11.74-1.8-.55-.17-1.1-.36-1.64-.56-.32-.11-.62-.24-.95-.33-.27-.07-.51-.2-.76-.33-.06-.03-.12-.05-.19-.08h0c-5.73-2.43-10.88-6.17-15.13-10.91-2.33-2.6-4.4-5.5-6.15-8.64-1.96-3.52-3.53-7.35-4.62-11.41-.93-3.45-1.52-7.06-1.72-10.78,9.06,4.66,16.74,11.6,22.29,20.07Z"/>
  <rect class="cls-17" x="760.25" y="486.6" width="53.93" height="106.15" transform="translate(1574.43 1079.34) rotate(-180)"/>
  <path class="cls-3" d="M645.5,349.64c-3.31-3.19-7.82-5.15-12.78-5.15h0"/>
  <path class="cls-3" d="M641.27,343.1c-2.16,.89-4.53,1.38-7.01,1.38h0"/>
  <g>
    <rect class="cls-15" x="106.77" y="721.88" width="149.88" height="149.88" rx="19.64" ry="19.64" transform="translate(-510.21 361.87) rotate(-45)"/>
    <g>
      <g>
        <path class="cls-8" d="M263.9,733.17c0,10.59-4.3,20.18-11.24,27.12-6.75,6.76-16.01,11-26.26,11.23-.29,.01-.58,.01-.87,.01h-6.18l-4.36,50.62h-62.98l-10.54-122.36h84.06l-5.32,61.79h6.19c7.51-.22,14.28-3.35,19.24-8.31,5.14-5.14,8.32-12.25,8.32-20.1s-3.18-14.96-8.32-20.1c-5.15-5.15-12.26-8.33-20.11-8.33v-9.93c10.59,0,20.19,4.29,27.13,11.23s11.24,16.54,11.24,27.13Z"/>
        <circle class="cls-10" cx="183.38" cy="699.79" r="42.16"/>
        <circle class="cls-13" cx="183.56" cy="699.61" r="31.43"/>
        <path class="cls-8" d="M226.4,771.52h0s-.87,.01-.87,.01c.29,0,.58,0,.87-.01Z"/>
      </g>
      <path class="cls-15" d="M183.56,730.4c-17.36,0-31.43-14.07-31.43-31.43h62.85c0,17.36-14.07,31.43-31.43,31.43Z"/>
    </g>
  </g>
  <g>
    <path class="cls-13" d="M457.4,779.52h379.61s-11.46-118.57-11.46-118.57H492.6c-13.4,0-24.61,10.17-25.91,23.5l-9.29,95.06Z"/>
    <path class="cls-15" d="M477.33,779.52h338.76c11.55,0,20.92,9.38,20.92,20.92H456.41c0-11.55,9.38-20.92,20.92-20.92Z" transform="translate(1293.42 1579.97) rotate(-180)"/>
    <rect class="cls-21" x="548.07" y="679.14" width="196.28" height="15.94" transform="translate(1292.42 1374.22) rotate(-180)"/>
    <rect class="cls-21" x="580.05" y="746.78" width="15.79" height="14.86" transform="translate(1175.88 1508.42) rotate(-180)"/>
    <g>
      <rect class="cls-21" x="639.13" y="710.62" width="31.82" height="14.86" transform="translate(1310.09 1436.1) rotate(-180)"/>
      <g>
        <rect class="cls-21" x="668.85" y="710.56" width="15.79" height="14.86" transform="translate(1353.5 1435.97) rotate(-180)"/>
        <rect class="cls-21" x="699.5" y="710.25" width="15.79" height="14.86" transform="translate(1414.8 1435.35) rotate(-180)"/>
        <rect class="cls-21" x="729.22" y="710.56" width="15.79" height="14.86" transform="translate(1474.24 1435.97) rotate(-180)"/>
      </g>
      <g>
        <rect class="cls-21" x="548.73" y="710.56" width="15.79" height="14.86" transform="translate(1113.26 1435.97) rotate(-180)"/>
        <rect class="cls-21" x="579.38" y="710.25" width="15.79" height="14.86" transform="translate(1174.55 1435.35) rotate(-180)"/>
        <rect class="cls-21" x="609.1" y="710.56" width="15.79" height="14.86" transform="translate(1234 1435.97) rotate(-180)"/>
      </g>
      <rect class="cls-21" x="639.55" y="746.78" width="15.79" height="14.86" transform="translate(1294.89 1508.42) rotate(-180)"/>
      <rect class="cls-21" x="759.48" y="747.11" width="15.79" height="14.86" transform="translate(1534.76 1509.08) rotate(-180)"/>
      <rect class="cls-21" x="519.03" y="746.78" width="15.79" height="14.86" transform="translate(1053.85 1508.42) rotate(-180)"/>
      <g>
        <rect class="cls-21" x="669.52" y="747.09" width="15.79" height="14.86" transform="translate(1354.83 1509.04) rotate(-180)"/>
        <rect class="cls-21" x="700.17" y="746.78" width="15.79" height="14.86" transform="translate(1416.13 1508.42) rotate(-180)"/>
        <rect class="cls-21" x="729.89" y="747.09" width="15.79" height="14.86" transform="translate(1475.57 1509.04) rotate(-180)"/>
      </g>
      <rect class="cls-21" x="549.4" y="746.71" width="34.87" height="14.86" transform="translate(1133.67 1508.29) rotate(-180)"/>
      <rect class="cls-21" x="609.77" y="747.09" width="15.79" height="14.86" transform="translate(1235.32 1509.04) rotate(-180)"/>
    </g>
  </g>
  <path class="cls-17" d="M813.91,486.79v216.39s74.95,0,74.95,0v-141.44c0-41.39-33.56-74.95-74.95-74.95Z"/>
  <rect class="cls-8" x="607.19" y="779.4" width="79.04" height="20.92" transform="translate(1293.42 1579.72) rotate(-180)"/>
  <path class="cls-6" d="M363.12,934.83c-10.83,21.15-8.8,47.17,3.9,64.43,.18,.25,.36,.5,.55,.74l3.93,5.5"/>
  <g>
    <rect class="cls-15" x="327.18" y="819.27" width="74.94" height="119.54" rx="37.47" ry="37.47"/>
    <path class="cls-10" d="M327.27,894.51v7.02c0,1.75,.12,3.48,.35,5.17,0,0,0,0,0,.01,.87,6.33,3.33,12.15,6.96,17.06,1.11,1.51,2.34,2.93,3.66,4.26,6.76,6.76,16.1,10.95,26.41,10.98h.09c20.7,0,37.47-16.78,37.47-37.47v-7.02s-74.94,0-74.94,0Z"/>
    <path class="cls-13" d="M327.27,894.51v7.02c0,1.75,.12,3.48,.35,5.17,0,0,0,0,0,.01,.99,6.28,3.43,12.09,6.96,17.06,1.11,1.51,2.34,2.93,3.66,4.26,6.76,6.76,16.1,10.95,26.41,10.98v-44.49s-37.39,0-37.39,0Z"/>
    <rect class="cls-15" x="360.59" y="905.27" width="8.14" height="23.25" rx="4.07" ry="4.07" transform="translate(729.32 1833.78) rotate(-180)"/>
  </g>
  <polygon class="cls-11" points="646.5 486.79 630.63 515.61 600.5 486.79 646.5 486.79"/>
  <path class="cls-9" d="M579.41,383.97h46.33c0,6.32-5.13,11.46-11.46,11.46h-23.41c-6.32,0-11.46-5.13-11.46-11.46h0Z" transform="translate(1205.16 779.4) rotate(-180)"/>
  <rect class="cls-20" x="642.22" y="509.22" width="139.24" height="93.74" transform="translate(1267.93 -155.75) rotate(90)"/>
  <path class="cls-26" d="M831.16,508.64h44.09v95.15h-139.24c0-52.52,42.64-95.15,95.15-95.15Z" transform="translate(1361.84 -249.41) rotate(90)"/>
  <polygon class="cls-11" points="646.51 486.79 659.68 515.61 702.92 486.79 646.51 486.79"/>
  <g>
    <path class="cls-8" d="M624.51,475.5l117.29-56.67c3.12-1.51,6.88-.2,8.38,2.92h0c1.51,3.12,.2,6.88-2.92,8.38l-117.64,56.84-14.36-.03,9.25-11.44Z"/>
    <rect class="cls-19" x="621.37" y="448.64" width="120.33" height="12.56" transform="translate(1493.11 568.04) rotate(154.21)"/>
    <path class="cls-12" d="M741.8,418.83c3.12-1.51,6.88-.2,8.38,2.92h0c1.51,3.12,.2,6.88-2.92,8.38l-8.82,4.26-5.46-11.31,8.82-4.26Z"/>
    <rect class="cls-8" x="728.37" y="424.15" width="7.73" height="12.56" transform="translate(1578.8 499.44) rotate(154.21)"/>
    <line class="cls-7" x1="727.05" y1="428.59" x2="625.66" y2="477.58"/>
    <line class="cls-7" x1="728.75" y1="432.11" x2="627.36" y2="481.1"/>
    <line class="cls-7" x1="730.45" y1="435.63" x2="629.06" y2="484.61"/>
    <polygon class="cls-12" points="618.55 482.83 620.52 486.93 615.24 486.91 618.55 482.83"/>
  </g>
  <g>
    <path class="cls-22" d="M660.95,433.99h15.89v12.61c0,4.38-3.56,7.94-7.94,7.94h0c-4.38,0-7.94-3.56-7.94-7.94v-12.61h0Z" transform="translate(1471.84 452.68) rotate(147.01)"/>
    <path class="cls-14" d="M668.86,497.31c-.37-.58-.67-1.18-.91-1.8l-12.15-33.61c-2.45-3.93-1.29-9.11,2.63-11.61l31.35-20.03c3.94-2.52,9.18-1.36,11.7,2.58l47.83,74.87h0s-16.4,10.15-16.4,10.15c-17.56,3.67-37.78-4.4-50.76-17.22-4.57,2.57-10.41,1.15-13.27-3.32Z"/>
    <line class="cls-5" x1="655.77" y1="460.85" x2="683.56" y2="442.68"/>
    <line class="cls-2" x1="658.8" y1="468.99" x2="686.22" y2="450.81"/>
    <line class="cls-5" x1="662.08" y1="478.54" x2="690.37" y2="459.62"/>
    <line class="cls-5" x1="665.57" y1="487.5" x2="693.86" y2="468.58"/>
  </g>
  <path class="cls-17" d="M695.73,541.66l19.73,35.15,30.07,45.05,39.15,58.64c10.76,16.8,27.1,27.87,45.05,32.34,19.34,4.82,40.55,1.97,58.65-9.63l-.03-.05-22.24-34.71-52.31-81.65-54.86-85.63-63.2,40.49Z"/>
  <path class="cls-15" d="M828.71,704.01c0,3.05,1.01,6.38,1.73,9.21,19.31,4.81,39.86,1.59,57.94-9.99l-.03-.05h.52s0-24.8,0-24.8c-5.96-5.73-13.92-9.4-22.72-9.86-.63-.03-1.26-.05-1.9-.05-19.35,0-35.09,15.46-35.53,34.71,0,.28,0,.55,0,.83Z"/>
  <polygon class="cls-8" points="566.83 960.73 892.14 960.73 892.14 825.23 610.14 825.23 566.83 960.73"/>
  <polygon class="cls-10" points="809.1 893.64 888.77 999.26 889.32 1000 976.11 1000 1097 1000 933.83 784.05 814.78 853.36 809.1 893.64"/>
  <path class="cls-4" d="M648.04,790.36c-32.88,58.78,114.93,78.31,54.3,113.58-74.23,43.18-18.95,72.09-48.54,95.32-.32,.25-.64,.49-.98,.74l-9.32,5.5"/>
  <path class="cls-14" d="M597.6,951.52c1.61,1.54,4.15,1.52,5.75-.03h0c1.6-1.55,1.69-4.09,.2-5.74l-24.22-27,1.38-1.34,36.19,34.47,2.53-2.45c1.78-1.73,1.88-4.56,.22-6.41l-30.4-33.9,1.34-1.3,39.35,37.48,2.59-2.52c1.75-1.7,1.84-4.47,.22-6.28l-33.37-37.21,1.4-1.36,37.1,35.33,2.86-2.78c1.6-1.55,1.77-4.17,.29-5.83l-32.58-34.17,.03-.03-7.84-12.09,12.03,6.19c5.54,2.86,12.35,.68,15.21-4.87h0s-43.47-22.39-43.47-22.39l-17.37-9.57-24.65-13.66-25.41,22.25,46.5,59.98s.04,.05,.07,.07l34.06,35.14Z"/>
  <polygon class="cls-13" points="814.78 853.36 809.1 893.64 831.98 878.03 814.78 853.36"/>
  <path class="cls-17" d="M357.2,687.06c-.65,12.52,2.47,24.47,8.38,34.69,4.24,9.21,10.07,17.84,17.43,25.47,0,0,0,0,.01,.01,.27,.28,.54,.56,.81,.83l129.19,128.97,51.31-53.37-112.06-113.13c-12.48-12.6-17.96-30.54-14.65-47.96l12.35-64.97c1.92-10.12,10.77-17.44,21.07-17.44h0v13.5s102.96,0,102.96,0v-106.87s-102.96,0-102.96,0h0s0,0,0,0c-44.32,0-82.38,31.5-90.65,75.04l-16.41,86.32c-.13,.33-.27,.66-.4,.99-.68,1.7-1.3,3.42-1.87,5.16-3.08,9.38-4.61,19.1-4.61,28.8,0,1.32,.03,2.64,.08,3.96Zm113.86-198.02h-.43l.43-2.25v2.25Z"/>
  <path class="cls-15" d="M357.2,687.06c-.65,12.52,2.47,24.47,8.38,34.69,4.24,9.21,10.07,17.84,17.43,25.47,1.44-1,2.83-2.07,4.16-3.2,11.78-10,19.25-24.92,19.25-41.59,0-15.06-6.11-28.7-15.98-38.57-7.19-7.19-16.37-12.38-26.65-14.67-.07-.02-.13-.03-.2-.05-.68,1.7-1.3,3.42-1.87,5.16-3.08,9.38-4.61,19.1-4.61,28.8,0,1.32,.03,2.64,.08,3.96Z"/>
</svg>