<svg width="506" height="251" viewBox="0 0 506 251" fill="none" xmlns="http://www.w3.org/2000/svg">
<path d="M4.54492 250.289L8.87505 242.789L0.214795 242.789L4.54492 250.289ZM5.29492 237.539L5.29492 229.039L3.79492 229.039L3.79492 237.539L5.29492 237.539ZM5.29492 220.539L5.29492 212.039L3.79492 212.039L3.79492 220.539L5.29492 220.539ZM5.29492 203.539L5.29492 195.039L3.79492 195.039L3.79492 203.539L5.29492 203.539ZM5.29492 186.539L5.29492 178.039L3.79492 178.039L3.79492 186.539L5.29492 186.539ZM5.29492 169.539L5.29492 165.289L3.79492 165.289L3.79492 169.539L5.29492 169.539ZM5.29492 165.289C5.29492 163.99 5.35801 162.706 5.48125 161.44L3.9883 161.294C3.86037 162.609 3.79492 163.941 3.79492 165.289L5.29492 165.289ZM6.97523 153.891C7.72717 151.409 8.71838 149.031 9.9221 146.784L8.59982 146.076C7.34997 148.409 6.3206 150.879 5.53967 153.456L6.97523 153.891ZM14.2028 140.389C15.835 138.403 17.6584 136.579 19.6449 134.947L18.6927 133.788C16.6307 135.482 14.738 137.375 13.0438 139.437L14.2028 140.389ZM26.0398 130.666C28.2872 129.463 30.6652 128.471 33.1471 127.719L32.7121 126.284C30.1345 127.065 27.6651 128.094 25.3316 129.344L26.0398 130.666ZM40.6954 126.225C41.9617 126.102 43.2458 126.039 44.5449 126.039V124.539C43.1972 124.539 41.8646 124.605 40.5501 124.732L40.6954 126.225ZM44.5449 126.039H48.5834V124.539H44.5449V126.039ZM56.6603 126.039H64.7372V124.539H56.6603V126.039ZM72.8141 126.039H80.8911V124.539H72.8141V126.039ZM88.968 126.039H97.0449V124.539H88.968V126.039ZM105.122 126.039H113.199V124.539H105.122V126.039ZM121.276 126.039H129.353V124.539H121.276V126.039ZM137.43 126.039H145.506V124.539H137.43V126.039ZM153.583 126.039H161.66V124.539H153.583V126.039ZM169.737 126.039H177.814V124.539H169.737V126.039ZM185.891 126.039H193.968V124.539H185.891V126.039ZM202.045 126.039H210.122V124.539H202.045V126.039ZM218.199 126.039H226.276V124.539H218.199V126.039ZM234.353 126.039H242.429V124.539H234.353V126.039ZM250.506 126.039H258.583V124.539H250.506V126.039ZM266.66 126.039H274.737V124.539H266.66V126.039ZM282.814 126.039H290.891V124.539H282.814V126.039ZM298.968 126.039H307.045V124.539H298.968V126.039ZM315.122 126.039H323.199V124.539H315.122V126.039ZM331.276 126.039H339.353V124.539H331.276V126.039ZM347.43 126.039H355.506V124.539H347.43V126.039ZM363.583 126.039H371.66V124.539H363.583V126.039ZM379.737 126.039H387.814V124.539H379.737V126.039ZM395.891 126.039H403.968V124.539H395.891V126.039ZM412.045 126.039H420.122V124.539H412.045V126.039ZM428.199 126.039H436.276V124.539H428.199V126.039ZM444.353 126.039H452.43V124.539H444.353V126.039ZM460.507 126.039H464.545V124.539H460.507V126.039ZM464.545 126.039C465.893 126.039 467.225 125.974 468.54 125.846L468.394 124.353C467.128 124.476 465.844 124.539 464.545 124.539V126.039ZM476.378 124.294C478.955 123.513 481.425 122.484 483.758 121.234L483.05 119.912C480.803 121.116 478.425 122.107 475.943 122.859L476.378 124.294ZM490.397 116.79C492.459 115.096 494.352 113.203 496.046 111.141L494.887 110.189C493.255 112.176 491.431 113.999 489.445 115.631L490.397 116.79ZM500.49 104.502C501.74 102.169 502.769 99.6994 503.55 97.1219L502.115 96.6869C501.363 99.1688 500.371 101.547 499.168 103.794L500.49 104.502ZM505.102 89.2839C505.229 87.9694 505.295 86.6368 505.295 85.2891H503.795C503.795 86.5882 503.732 87.8723 503.609 89.1386L505.102 89.2839ZM505.295 85.2891V81.0391H503.795V85.2891H505.295ZM505.295 72.5391V64.0391H503.795V72.5391H505.295ZM505.295 55.5391V47.0391H503.795V55.5391H505.295ZM505.295 38.5391V30.0391H503.795V38.5391H505.295ZM505.295 21.5391V13.0391H503.795V21.5391H505.295ZM505.295 4.53906V0.289062H503.795V4.53906H505.295Z" fill="url(#paint0_linear_3845_3920)"/>
<defs>
<linearGradient id="paint0_linear_3845_3920" x1="4.54492" y1="0.289063" x2="204.545" y2="400.289" gradientUnits="userSpaceOnUse">
<stop stop-color="#F6D242"/>
<stop offset="1" stop-color="#FF52E5"/>
</linearGradient>
</defs>
</svg>
