<svg width="57" height="56" viewBox="0 0 57 56" fill="none" xmlns="http://www.w3.org/2000/svg">
<path fill-rule="evenodd" clip-rule="evenodd" d="M28.5317 56C43.9957 56 56.5317 43.464 56.5317 28C56.5317 12.536 43.9957 0 28.5317 0C13.0678 0 0.531738 12.536 0.531738 28C0.531738 43.464 13.0678 56 28.5317 56ZM29.7817 18C29.7817 17.1716 29.1102 16.5 28.2817 16.5C27.4533 16.5 26.7817 17.1716 26.7817 18V34.3787L20.5924 28.1893C20.0066 27.6036 19.0569 27.6036 18.4711 28.1893C17.8853 28.7751 17.8853 29.7249 18.4711 30.3107L27.2205 39.06L27.2211 39.0607L27.2243 39.0638C27.4955 39.3334 27.8691 39.5 28.2817 39.5C28.4851 39.5 28.6791 39.4595 28.8559 39.3862C29.0315 39.3135 29.1961 39.2061 29.3392 39.0638L29.3424 39.0607L29.343 39.06L38.0924 30.3107C38.6782 29.7249 38.6782 28.7751 38.0924 28.1893C37.5066 27.6036 36.5569 27.6036 35.9711 28.1893L29.7817 34.3787V18Z" fill="#F18379"/>
</svg>
