<svg width="28" height="29" viewBox="0 0 28 29" fill="none" xmlns="http://www.w3.org/2000/svg">
<path d="M22.1667 3.63867C22.7855 3.63867 23.379 3.8845 23.8166 4.32209C24.2542 4.75967 24.5 5.35317 24.5 5.97201V22.3053C24.5 22.9242 24.2542 23.5177 23.8166 23.9553C23.379 24.3928 22.7855 24.6387 22.1667 24.6387H5.83333C5.21449 24.6387 4.621 24.3928 4.18342 23.9553C3.74583 23.5177 3.5 22.9242 3.5 22.3053V5.97201C3.5 5.35317 3.74583 4.75967 4.18342 4.32209C4.621 3.8845 5.21449 3.63867 5.83333 3.63867H22.1667ZM21.5833 21.722V15.5387C21.5833 14.53 21.1826 13.5626 20.4694 12.8493C19.7561 12.136 18.7887 11.7353 17.78 11.7353C16.7883 11.7353 15.6333 12.342 15.0733 13.252V11.957H11.8183V21.722H15.0733V15.9703C15.0733 15.072 15.7967 14.337 16.695 14.337C17.1282 14.337 17.5436 14.5091 17.8499 14.8154C18.1562 15.1217 18.3283 15.5372 18.3283 15.9703V21.722H21.5833ZM8.02667 10.1253C8.54649 10.1253 9.04502 9.91884 9.4126 9.55127C9.78017 9.1837 9.98667 8.68516 9.98667 8.16534C9.98667 7.08034 9.11167 6.19367 8.02667 6.19367C7.50375 6.19367 7.00225 6.4014 6.63249 6.77116C6.26273 7.14092 6.055 7.64242 6.055 8.16534C6.055 9.25034 6.94167 10.1253 8.02667 10.1253ZM9.64833 21.722V11.957H6.41667V21.722H9.64833Z" fill="#111827"/>
</svg>
