<svg width="290" height="25" viewBox="0 0 290 25" fill="none" xmlns="http://www.w3.org/2000/svg">
<g clip-path="url(#clip0_2914_1858)">
<path d="M263.812 0.479979L12.6265 0.479968C5.94042 0.479968 0.519997 5.85271 0.519997 12.48C0.519997 19.1072 5.94042 24.48 12.6265 24.48L264.573 24.48L289.48 12.48L263.812 0.479979Z" fill="#F2C3D0"/>
<path d="M263.557 0.479991L31.5103 0.47998L31.5103 24.48L263.557 24.48L263.557 0.479991Z" fill="#F18379"/>
<path d="M12.6263 0.47998C5.94025 0.479979 0.519823 5.85272 0.519823 12.48C0.519822 19.1072 5.94025 24.48 12.6263 24.48L31.5103 24.48L31.5103 0.47998L12.6263 0.47998V0.47998Z" fill="#0C123E"/>
<path d="M46.4147 0.479981L31.5103 0.47998L31.5103 24.48L46.4147 24.48L46.4147 0.479981Z" fill="#F2C3D0"/>
<path d="M46.415 5.0122L263.557 5.01221" stroke="#0C123E" stroke-width="3" stroke-miterlimit="10"/>
<path d="M46.415 12.48L263.557 12.48" stroke="#0C123E" stroke-width="3" stroke-miterlimit="10"/>
<path d="M46.415 19.9477L263.557 19.9478" stroke="#0C123E" stroke-width="3" stroke-miterlimit="10"/>
<path d="M280.32 8.1333L280.32 16.8292L289.48 12.4158L280.32 8.1333Z" fill="#0C123E"/>
</g>
<defs>
<clipPath id="clip0_2914_1858">
<rect width="24" height="288.96" fill="white" transform="translate(289.48 0.47998) rotate(90)"/>
</clipPath>
</defs>
</svg>
