<svg width="385" height="385" viewBox="0 0 385 385" fill="none" xmlns="http://www.w3.org/2000/svg">
<rect x="0.5" y="0.5" width="384" height="384" rx="192" fill="url(#paint0_radial_3844_3917)"/>
<rect x="128.5" y="128.5" width="128" height="128" rx="64" fill="white"/>
<g filter="url(#filter0_dd_3844_3917)">
<rect x="136.5" y="136.5" width="112" height="112" rx="56" fill="#F3F4F6" shape-rendering="crispEdges"/>
<path d="M170.62 185.68C169.713 185.68 168.9 185.52 168.18 185.2C167.46 184.867 166.887 184.42 166.46 183.86C166.047 183.3 165.82 182.68 165.78 182H168.6C168.653 182.427 168.86 182.78 169.22 183.06C169.593 183.34 170.053 183.48 170.6 183.48C171.133 183.48 171.547 183.373 171.84 183.16C172.147 182.947 172.3 182.673 172.3 182.34C172.3 181.98 172.113 181.713 171.74 181.54C171.38 181.353 170.8 181.153 170 180.94C169.173 180.74 168.493 180.533 167.96 180.32C167.44 180.107 166.987 179.78 166.6 179.34C166.227 178.9 166.04 178.307 166.04 177.56C166.04 176.947 166.213 176.387 166.56 175.88C166.92 175.373 167.427 174.973 168.08 174.68C168.747 174.387 169.527 174.24 170.42 174.24C171.74 174.24 172.793 174.573 173.58 175.24C174.367 175.893 174.8 176.78 174.88 177.9H172.2C172.16 177.46 171.973 177.113 171.64 176.86C171.32 176.593 170.887 176.46 170.34 176.46C169.833 176.46 169.44 176.553 169.16 176.74C168.893 176.927 168.76 177.187 168.76 177.52C168.76 177.893 168.947 178.18 169.32 178.38C169.693 178.567 170.273 178.76 171.06 178.96C171.86 179.16 172.52 179.367 173.04 179.58C173.56 179.793 174.007 180.127 174.38 180.58C174.767 181.02 174.967 181.607 174.98 182.34C174.98 182.98 174.8 183.553 174.44 184.06C174.093 184.567 173.587 184.967 172.92 185.26C172.267 185.54 171.5 185.68 170.62 185.68ZM176.558 179.96C176.558 178.813 176.792 177.813 177.258 176.96C177.725 176.093 178.372 175.427 179.198 174.96C180.025 174.48 180.972 174.24 182.038 174.24C183.412 174.24 184.545 174.587 185.438 175.28C186.345 175.96 186.952 176.92 187.258 178.16H184.238C184.078 177.68 183.805 177.307 183.418 177.04C183.045 176.76 182.578 176.62 182.018 176.62C181.218 176.62 180.585 176.913 180.118 177.5C179.652 178.073 179.418 178.893 179.418 179.96C179.418 181.013 179.652 181.833 180.118 182.42C180.585 182.993 181.218 183.28 182.018 183.28C183.152 183.28 183.892 182.773 184.238 181.76H187.258C186.952 182.96 186.345 183.913 185.438 184.62C184.532 185.327 183.398 185.68 182.038 185.68C180.972 185.68 180.025 185.447 179.198 184.98C178.372 184.5 177.725 183.833 177.258 182.98C176.792 182.113 176.558 181.107 176.558 179.96ZM192.11 176.14C192.47 175.553 192.936 175.093 193.51 174.76C194.096 174.427 194.763 174.26 195.51 174.26V177.2H194.77C193.89 177.2 193.223 177.407 192.77 177.82C192.33 178.233 192.11 178.953 192.11 179.98V185.5H189.31V174.42H192.11V176.14ZM202.316 185.68C201.249 185.68 200.289 185.447 199.436 184.98C198.582 184.5 197.909 183.827 197.416 182.96C196.936 182.093 196.696 181.093 196.696 179.96C196.696 178.827 196.942 177.827 197.436 176.96C197.942 176.093 198.629 175.427 199.496 174.96C200.362 174.48 201.329 174.24 202.396 174.24C203.462 174.24 204.429 174.48 205.296 174.96C206.162 175.427 206.842 176.093 207.336 176.96C207.842 177.827 208.096 178.827 208.096 179.96C208.096 181.093 207.836 182.093 207.316 182.96C206.809 183.827 206.116 184.5 205.236 184.98C204.369 185.447 203.396 185.68 202.316 185.68ZM202.316 183.24C202.822 183.24 203.296 183.12 203.736 182.88C204.189 182.627 204.549 182.253 204.816 181.76C205.082 181.267 205.216 180.667 205.216 179.96C205.216 178.907 204.936 178.1 204.376 177.54C203.829 176.967 203.156 176.68 202.356 176.68C201.556 176.68 200.882 176.967 200.336 177.54C199.802 178.1 199.536 178.907 199.536 179.96C199.536 181.013 199.796 181.827 200.316 182.4C200.849 182.96 201.516 183.24 202.316 183.24ZM212.95 170.7V185.5H210.15V170.7H212.95ZM218.516 170.7V185.5H215.716V170.7H218.516Z" fill="#374151"/>
<path d="M192.5 224.5V204.5M183.75 215.75L192.5 224.5L201.25 215.75" stroke="#4B5563" stroke-width="3" stroke-linecap="round" stroke-linejoin="round"/>
</g>
<defs>
<filter id="filter0_dd_3844_3917" x="133.5" y="134.5" width="118" height="118" filterUnits="userSpaceOnUse" color-interpolation-filters="sRGB">
<feFlood flood-opacity="0" result="BackgroundImageFix"/>
<feColorMatrix in="SourceAlpha" type="matrix" values="0 0 0 0 0 0 0 0 0 0 0 0 0 0 0 0 0 0 127 0" result="hardAlpha"/>
<feOffset dy="1"/>
<feGaussianBlur stdDeviation="1.5"/>
<feComposite in2="hardAlpha" operator="out"/>
<feColorMatrix type="matrix" values="0 0 0 0 0 0 0 0 0 0 0 0 0 0 0 0 0 0 0.1 0"/>
<feBlend mode="normal" in2="BackgroundImageFix" result="effect1_dropShadow_3844_3917"/>
<feColorMatrix in="SourceAlpha" type="matrix" values="0 0 0 0 0 0 0 0 0 0 0 0 0 0 0 0 0 0 127 0" result="hardAlpha"/>
<feMorphology radius="1" operator="erode" in="SourceAlpha" result="effect2_dropShadow_3844_3917"/>
<feOffset dy="1"/>
<feGaussianBlur stdDeviation="1"/>
<feComposite in2="hardAlpha" operator="out"/>
<feColorMatrix type="matrix" values="0 0 0 0 0 0 0 0 0 0 0 0 0 0 0 0 0 0 0.1 0"/>
<feBlend mode="normal" in2="effect1_dropShadow_3844_3917" result="effect2_dropShadow_3844_3917"/>
<feBlend mode="normal" in="SourceGraphic" in2="effect2_dropShadow_3844_3917" result="shape"/>
</filter>
<radialGradient id="paint0_radial_3844_3917" cx="0" cy="0" r="1" gradientUnits="userSpaceOnUse" gradientTransform="translate(192.5 192.5) rotate(90) scale(192)">
<stop stop-color="#F3F4F6"/>
<stop offset="1" stop-color="white"/>
</radialGradient>
</defs>
</svg>
